<svg xmlns="http://www.w3.org/2000/svg" xmlns:xlink="http://www.w3.org/1999/xlink" preserveAspectRatio="xMidYMid" width="27.03" height="22.06" viewBox="0 0 27.03 22.06">
  <defs>
    <style>
      .cls-1 {
        fill: #293443;
        fill-rule: evenodd;
      }
    </style>
  </defs>
  <path d="M27.038,2.661 C26.583,2.913 25.216,3.417 23.945,3.542 C24.761,3.100 25.970,1.652 26.268,0.502 C25.483,1.007 23.679,1.741 22.790,1.741 L22.790,1.742 C21.774,0.678 20.344,0.013 18.758,0.013 C15.679,0.013 13.181,2.519 13.181,5.608 C13.181,6.037 13.230,6.456 13.322,6.857 L13.321,6.857 C9.143,6.747 4.574,4.646 1.823,1.050 C0.131,3.988 1.595,7.254 3.514,8.444 C2.857,8.494 1.648,8.368 1.079,7.811 C1.041,9.760 1.975,12.343 5.381,13.280 C4.726,13.635 3.564,13.532 3.059,13.458 C3.236,15.104 5.533,17.255 8.045,17.255 C7.150,18.294 3.782,20.178 0.002,19.579 C2.569,21.146 5.560,22.053 8.727,22.053 C17.725,22.053 24.714,14.736 24.338,5.709 C24.336,5.700 24.336,5.689 24.335,5.679 C24.336,5.655 24.338,5.632 24.338,5.608 C24.338,5.580 24.335,5.554 24.334,5.526 C25.154,4.965 26.253,3.970 27.038,2.661 Z" class="cls-1"/>
</svg>
